# xmcd
#
# Track frame offsets: 
#        150
#        10647
#        22052
#        32695
#        43487
#        61932
#        75965
#        86375
#        99235
#        112317
#        126925
#        139235
#
# Disc length: 2022 seconds
#
# Revision: 0
# Processed by: cddbd v1.5.1PL0 Copyright (c) Steve Scherf et al.
# Submitted via: ExactAudioCopy v0.95b2
#
DISCID=9707e40c
DTITLE=Various Artist - The Best Of Chess Rock'n'Roll -  Vol 2
DYEAR=1900
DGENRE=Rock
TTITLE0=The Tune Weavers - Happy, Happy Birthday Baby
TTITLE1=The Students - I'm So Young
TTITLE2=The Monotones - Book Of Love
TTITLE3=Lee Andrews and The Hearts - Teardrops
TTITLE4=Harvey And The Moonglows - Ten Commandments Of Love
TTITLE5=The Sensations - Let Me In
TTITLE6=Johnnie And Joe - Over The Mountain, Across The Sea
TTITLE7=Tommy Tucker - High Heel Sneakers
TTITLE8=Dave 'Baby' Cortez - Rinky Dink
TTITLE9=Jaynetts - Sally Go 'Round The Roses
TTITLE10=Chuck Berry - No Particular Place To Go
TTITLE11=Bo Diddley - Road Runner
EXTD=
EXTT0=
EXTT1=
EXTT2=
EXTT3=
EXTT4=
EXTT5=
EXTT6=
EXTT7=
EXTT8=
EXTT9=
EXTT10=
EXTT11=
PLAYORDER=
